<?xml version="1.0" encoding="UTF-8" standalone="no"?>
<!DOCTYPE svg PUBLIC "-//W3C//DTD SVG 1.1//EN" "http://www.w3.org/Graphics/SVG/1.1/DTD/svg11.dtd">
<svg width="100%" height="100%" viewBox="0 0 199 200" version="1.1" xmlns="http://www.w3.org/2000/svg" xmlns:xlink="http://www.w3.org/1999/xlink" xml:space="preserve" xmlns:serif="http://www.serif.com/" style="fill-rule:evenodd;clip-rule:evenodd;stroke-linejoin:round;stroke-miterlimit:2;">
    <g transform="matrix(1,0,0,1,-106,-2812)">
        <g transform="matrix(0.661168,0,0,0.661168,-231.893,2051.16)">
            <g id="SatoshisForexIcon">
                <g transform="matrix(1.29315,0,0,1.29315,-438.162,-495.609)">
                    <circle cx="850.029" cy="1390.15" r="115.996" style="fill:rgb(36,41,54);"/>
                </g>
                <g transform="matrix(1.51247,0,0,1.51247,541.824,67.1889)">
                    <g transform="matrix(39,0,0,39,56.8629,851.827)">
                        <path d="M0.106,0.005C0.092,0.005 0.079,-0.001 0.068,-0.011C0.058,-0.021 0.053,-0.034 0.053,-0.05C0.053,-0.066 0.058,-0.079 0.068,-0.089C0.079,-0.099 0.092,-0.104 0.106,-0.104C0.121,-0.104 0.133,-0.099 0.144,-0.089C0.154,-0.079 0.16,-0.066 0.16,-0.05C0.16,-0.034 0.154,-0.021 0.144,-0.011C0.133,-0.001 0.121,0.005 0.106,0.005Z" style="fill:white;fill-rule:nonzero;"/>
                    </g>
                    <g transform="matrix(39,0,0,39,65.1321,851.827)">
                        <path d="M0.111,-0L0.111,-0.591C0.111,-0.638 0.125,-0.676 0.152,-0.704C0.179,-0.732 0.219,-0.747 0.27,-0.747C0.29,-0.747 0.309,-0.744 0.328,-0.739C0.347,-0.734 0.362,-0.725 0.375,-0.714L0.351,-0.661C0.341,-0.669 0.329,-0.676 0.316,-0.681C0.302,-0.685 0.288,-0.687 0.273,-0.687C0.243,-0.687 0.22,-0.679 0.204,-0.662C0.188,-0.645 0.18,-0.621 0.18,-0.588L0.18,-0.508L0.182,-0.475L0.182,-0L0.111,-0ZM0.017,-0.466L0.017,-0.526L0.342,-0.526L0.342,-0.466L0.017,-0.466Z" style="fill:white;fill-rule:nonzero;"/>
                    </g>
                    <g transform="matrix(39,0,0,39,78.0151,851.827)">
                        <path d="M0.314,0.005C0.262,0.005 0.217,-0.007 0.176,-0.03C0.136,-0.053 0.104,-0.084 0.081,-0.125C0.058,-0.165 0.046,-0.211 0.046,-0.263C0.046,-0.315 0.058,-0.362 0.081,-0.402C0.105,-0.442 0.136,-0.473 0.176,-0.496C0.216,-0.519 0.262,-0.53 0.314,-0.53C0.365,-0.53 0.411,-0.519 0.451,-0.496C0.492,-0.473 0.523,-0.442 0.546,-0.402C0.569,-0.362 0.581,-0.316 0.581,-0.263C0.581,-0.211 0.569,-0.165 0.546,-0.125C0.523,-0.084 0.492,-0.053 0.451,-0.03C0.411,-0.007 0.365,0.005 0.314,0.005ZM0.314,-0.058C0.351,-0.058 0.385,-0.066 0.414,-0.084C0.444,-0.101 0.467,-0.125 0.484,-0.156C0.501,-0.187 0.509,-0.222 0.509,-0.263C0.509,-0.304 0.501,-0.34 0.484,-0.371C0.467,-0.401 0.444,-0.425 0.414,-0.442C0.385,-0.459 0.351,-0.468 0.314,-0.468C0.276,-0.468 0.243,-0.459 0.214,-0.442C0.184,-0.425 0.161,-0.401 0.144,-0.371C0.126,-0.34 0.118,-0.304 0.118,-0.263C0.118,-0.222 0.126,-0.187 0.144,-0.156C0.161,-0.125 0.184,-0.101 0.214,-0.084C0.243,-0.066 0.276,-0.058 0.314,-0.058Z" style="fill:white;fill-rule:nonzero;"/>
                    </g>
                    <g transform="matrix(39,0,0,39,102.468,851.827)">
                        <path d="M0.099,-0L0.099,-0.526L0.167,-0.526L0.167,-0.382L0.16,-0.407C0.175,-0.447 0.2,-0.477 0.234,-0.498C0.269,-0.52 0.312,-0.53 0.364,-0.53L0.364,-0.461C0.361,-0.461 0.358,-0.462 0.355,-0.462C0.352,-0.462 0.35,-0.462 0.347,-0.462C0.292,-0.462 0.249,-0.445 0.217,-0.412C0.186,-0.378 0.17,-0.33 0.17,-0.268L0.17,-0L0.099,-0Z" style="fill:white;fill-rule:nonzero;"/>
                    </g>
                    <g transform="matrix(39,0,0,39,117.605,851.827)">
                        <path d="M0.322,0.005C0.268,0.005 0.22,-0.007 0.178,-0.03C0.137,-0.053 0.104,-0.084 0.081,-0.125C0.058,-0.165 0.046,-0.211 0.046,-0.263C0.046,-0.315 0.057,-0.361 0.079,-0.401C0.102,-0.441 0.132,-0.473 0.171,-0.496C0.21,-0.519 0.254,-0.53 0.303,-0.53C0.352,-0.53 0.396,-0.519 0.434,-0.497C0.473,-0.474 0.503,-0.443 0.525,-0.403C0.547,-0.362 0.558,-0.316 0.558,-0.263C0.558,-0.26 0.558,-0.257 0.558,-0.253C0.557,-0.249 0.557,-0.245 0.557,-0.241L0.1,-0.241L0.1,-0.294L0.519,-0.294L0.491,-0.273C0.491,-0.311 0.483,-0.345 0.467,-0.374C0.451,-0.404 0.428,-0.427 0.4,-0.444C0.372,-0.461 0.34,-0.469 0.303,-0.469C0.267,-0.469 0.234,-0.461 0.206,-0.444C0.178,-0.427 0.155,-0.404 0.139,-0.374C0.123,-0.344 0.116,-0.31 0.116,-0.272L0.116,-0.26C0.116,-0.22 0.124,-0.185 0.142,-0.155C0.16,-0.124 0.184,-0.101 0.216,-0.084C0.247,-0.066 0.283,-0.058 0.324,-0.058C0.356,-0.058 0.386,-0.064 0.414,-0.075C0.441,-0.087 0.465,-0.104 0.485,-0.127L0.525,-0.081C0.501,-0.053 0.472,-0.032 0.437,-0.017C0.402,-0.003 0.364,0.005 0.322,0.005Z" style="fill:white;fill-rule:nonzero;"/>
                    </g>
                    <g transform="matrix(39,0,0,39,140.576,851.827)">
                        <path d="M0.019,-0L0.241,-0.288L0.24,-0.253L0.029,-0.526L0.109,-0.526L0.282,-0.3L0.252,-0.301L0.425,-0.526L0.503,-0.526L0.29,-0.25L0.291,-0.288L0.515,-0L0.434,-0L0.251,-0.24L0.279,-0.236L0.099,-0L0.019,-0Z" style="fill:white;fill-rule:nonzero;"/>
                    </g>
                    <g transform="matrix(39,0,0,39,161.412,851.827)">
                    </g>
                </g>
                <g transform="matrix(1.51247,0,0,1.51247,444.91,13.6878)">
                    <g transform="matrix(39,0,0,39,56.8629,851.827)">
                        <path d="M0.243,0.006C0.199,0.006 0.157,-0 0.117,-0.012C0.078,-0.024 0.046,-0.039 0.024,-0.056L0.064,-0.132C0.087,-0.116 0.115,-0.103 0.148,-0.093C0.182,-0.082 0.215,-0.077 0.25,-0.077C0.294,-0.077 0.327,-0.083 0.347,-0.096C0.366,-0.109 0.376,-0.127 0.376,-0.149C0.376,-0.166 0.37,-0.179 0.358,-0.188C0.346,-0.197 0.33,-0.204 0.31,-0.209C0.29,-0.214 0.269,-0.218 0.245,-0.222C0.221,-0.225 0.197,-0.23 0.173,-0.235C0.149,-0.241 0.127,-0.249 0.107,-0.26C0.087,-0.27 0.071,-0.284 0.059,-0.303C0.047,-0.321 0.041,-0.346 0.041,-0.376C0.041,-0.408 0.05,-0.436 0.068,-0.46C0.086,-0.484 0.112,-0.502 0.144,-0.515C0.177,-0.529 0.217,-0.535 0.262,-0.535C0.297,-0.535 0.332,-0.531 0.368,-0.522C0.403,-0.514 0.432,-0.502 0.455,-0.487L0.414,-0.411C0.39,-0.427 0.365,-0.438 0.339,-0.444C0.313,-0.45 0.287,-0.453 0.261,-0.453C0.219,-0.453 0.188,-0.446 0.167,-0.433C0.147,-0.419 0.136,-0.402 0.136,-0.38C0.136,-0.362 0.142,-0.348 0.155,-0.339C0.167,-0.329 0.183,-0.322 0.202,-0.316C0.222,-0.311 0.244,-0.306 0.268,-0.303C0.292,-0.299 0.316,-0.294 0.34,-0.289C0.364,-0.283 0.386,-0.275 0.405,-0.265C0.425,-0.255 0.441,-0.241 0.453,-0.223C0.466,-0.205 0.472,-0.181 0.472,-0.151C0.472,-0.119 0.462,-0.091 0.444,-0.068C0.425,-0.044 0.399,-0.026 0.365,-0.014C0.331,-0.001 0.291,0.006 0.243,0.006Z" style="fill:rgb(255,117,0);fill-rule:nonzero;"/>
                    </g>
                    <g transform="matrix(39,0,0,39,76.402,851.827)">
                        <path d="M0.42,-0L0.42,-0.112L0.415,-0.133L0.415,-0.324C0.415,-0.365 0.404,-0.396 0.38,-0.419C0.356,-0.441 0.321,-0.452 0.273,-0.452C0.241,-0.452 0.211,-0.447 0.181,-0.437C0.151,-0.426 0.126,-0.413 0.105,-0.395L0.065,-0.467C0.092,-0.489 0.125,-0.506 0.164,-0.518C0.202,-0.529 0.242,-0.535 0.284,-0.535C0.357,-0.535 0.413,-0.517 0.452,-0.482C0.492,-0.447 0.511,-0.392 0.511,-0.32L0.511,-0L0.42,-0ZM0.246,0.006C0.207,0.006 0.172,-0.001 0.142,-0.014C0.113,-0.027 0.09,-0.046 0.074,-0.069C0.058,-0.093 0.05,-0.12 0.05,-0.15C0.05,-0.179 0.057,-0.205 0.07,-0.228C0.084,-0.251 0.106,-0.27 0.137,-0.284C0.169,-0.298 0.21,-0.305 0.263,-0.305L0.431,-0.305L0.431,-0.236L0.267,-0.236C0.219,-0.236 0.187,-0.228 0.17,-0.212C0.153,-0.196 0.145,-0.177 0.145,-0.154C0.145,-0.128 0.155,-0.107 0.176,-0.091C0.197,-0.076 0.226,-0.068 0.262,-0.068C0.298,-0.068 0.33,-0.076 0.357,-0.092C0.384,-0.108 0.403,-0.132 0.415,-0.162L0.434,-0.096C0.421,-0.064 0.399,-0.04 0.367,-0.021C0.335,-0.003 0.295,0.006 0.246,0.006Z" style="fill:rgb(255,117,0);fill-rule:nonzero;"/>
                    </g>
                    <g transform="matrix(39,0,0,39,99.7102,851.827)">
                        <path d="M0.273,0.006C0.22,0.006 0.178,-0.009 0.149,-0.037C0.12,-0.065 0.105,-0.107 0.105,-0.16L0.105,-0.646L0.201,-0.646L0.201,-0.164C0.201,-0.135 0.208,-0.114 0.223,-0.098C0.237,-0.083 0.258,-0.075 0.284,-0.075C0.314,-0.075 0.339,-0.083 0.359,-0.1L0.389,-0.031C0.374,-0.019 0.357,-0.009 0.336,-0.003C0.316,0.003 0.295,0.006 0.273,0.006ZM0.015,-0.451L0.015,-0.53L0.353,-0.53L0.353,-0.451L0.015,-0.451Z" style="fill:rgb(255,117,0);fill-rule:nonzero;"/>
                    </g>
                    <g transform="matrix(39,0,0,39,115.161,851.827)">
                        <path d="M0.318,0.006C0.265,0.006 0.218,-0.006 0.176,-0.029C0.135,-0.052 0.102,-0.084 0.078,-0.125C0.054,-0.166 0.042,-0.213 0.042,-0.265C0.042,-0.318 0.054,-0.365 0.078,-0.405C0.102,-0.446 0.135,-0.477 0.176,-0.5C0.217,-0.524 0.265,-0.535 0.318,-0.535C0.371,-0.535 0.418,-0.524 0.46,-0.501C0.501,-0.477 0.534,-0.446 0.558,-0.405C0.581,-0.365 0.593,-0.318 0.593,-0.265C0.593,-0.213 0.581,-0.166 0.558,-0.125C0.534,-0.084 0.501,-0.052 0.46,-0.029C0.418,-0.006 0.37,0.006 0.318,0.006ZM0.318,-0.079C0.352,-0.079 0.383,-0.086 0.41,-0.101C0.436,-0.117 0.458,-0.139 0.473,-0.167C0.489,-0.195 0.496,-0.228 0.496,-0.265C0.496,-0.303 0.489,-0.336 0.473,-0.364C0.458,-0.391 0.436,-0.413 0.41,-0.428C0.383,-0.444 0.352,-0.451 0.318,-0.451C0.284,-0.451 0.253,-0.444 0.227,-0.428C0.2,-0.413 0.179,-0.391 0.163,-0.364C0.147,-0.336 0.139,-0.303 0.139,-0.265C0.139,-0.228 0.147,-0.195 0.163,-0.167C0.179,-0.139 0.2,-0.117 0.227,-0.101C0.253,-0.086 0.284,-0.079 0.318,-0.079Z" style="fill:rgb(255,117,0);fill-rule:nonzero;"/>
                    </g>
                    <g transform="matrix(39,0,0,39,139.939,851.827)">
                        <path d="M0.243,0.006C0.199,0.006 0.157,-0 0.117,-0.012C0.078,-0.024 0.046,-0.039 0.024,-0.056L0.064,-0.132C0.087,-0.116 0.115,-0.103 0.148,-0.093C0.182,-0.082 0.215,-0.077 0.25,-0.077C0.294,-0.077 0.327,-0.083 0.347,-0.096C0.366,-0.109 0.376,-0.127 0.376,-0.149C0.376,-0.166 0.37,-0.179 0.358,-0.188C0.346,-0.197 0.33,-0.204 0.31,-0.209C0.29,-0.214 0.269,-0.218 0.245,-0.222C0.221,-0.225 0.197,-0.23 0.173,-0.235C0.149,-0.241 0.127,-0.249 0.107,-0.26C0.087,-0.27 0.071,-0.284 0.059,-0.303C0.047,-0.321 0.041,-0.346 0.041,-0.376C0.041,-0.408 0.05,-0.436 0.068,-0.46C0.086,-0.484 0.112,-0.502 0.144,-0.515C0.177,-0.529 0.217,-0.535 0.262,-0.535C0.297,-0.535 0.332,-0.531 0.368,-0.522C0.403,-0.514 0.432,-0.502 0.455,-0.487L0.414,-0.411C0.39,-0.427 0.365,-0.438 0.339,-0.444C0.313,-0.45 0.287,-0.453 0.261,-0.453C0.219,-0.453 0.188,-0.446 0.167,-0.433C0.147,-0.419 0.136,-0.402 0.136,-0.38C0.136,-0.362 0.142,-0.348 0.155,-0.339C0.167,-0.329 0.183,-0.322 0.202,-0.316C0.222,-0.311 0.244,-0.306 0.268,-0.303C0.292,-0.299 0.316,-0.294 0.34,-0.289C0.364,-0.283 0.386,-0.275 0.405,-0.265C0.425,-0.255 0.441,-0.241 0.453,-0.223C0.466,-0.205 0.472,-0.181 0.472,-0.151C0.472,-0.119 0.462,-0.091 0.444,-0.068C0.425,-0.044 0.399,-0.026 0.365,-0.014C0.331,-0.001 0.291,0.006 0.243,0.006Z" style="fill:rgb(255,117,0);fill-rule:nonzero;"/>
                    </g>
                    <g transform="matrix(39,0,0,39,159.478,851.827)">
                        <path d="M0.091,-0L0.091,-0.742L0.187,-0.742L0.187,-0.387L0.168,-0.425C0.185,-0.46 0.212,-0.487 0.248,-0.506C0.284,-0.526 0.326,-0.535 0.374,-0.535C0.417,-0.535 0.455,-0.527 0.488,-0.51C0.521,-0.494 0.547,-0.468 0.566,-0.434C0.585,-0.4 0.594,-0.357 0.594,-0.305L0.594,-0L0.498,-0L0.498,-0.294C0.498,-0.346 0.486,-0.384 0.461,-0.41C0.436,-0.436 0.4,-0.449 0.355,-0.449C0.321,-0.449 0.292,-0.443 0.266,-0.429C0.241,-0.416 0.222,-0.396 0.208,-0.37C0.194,-0.344 0.187,-0.312 0.187,-0.273L0.187,-0L0.091,-0Z" style="fill:rgb(255,117,0);fill-rule:nonzero;"/>
                    </g>
                    <g transform="matrix(39,0,0,39,186.024,851.827)">
                        <path d="M0.091,-0L0.091,-0.53L0.187,-0.53L0.187,-0L0.091,-0ZM0.139,-0.632C0.12,-0.632 0.105,-0.638 0.093,-0.65C0.08,-0.662 0.074,-0.677 0.074,-0.694C0.074,-0.712 0.08,-0.727 0.093,-0.739C0.105,-0.751 0.12,-0.757 0.139,-0.757C0.158,-0.757 0.173,-0.751 0.186,-0.74C0.198,-0.728 0.204,-0.713 0.204,-0.696C0.204,-0.678 0.198,-0.663 0.186,-0.651C0.174,-0.638 0.158,-0.632 0.139,-0.632Z" style="fill:rgb(255,117,0);fill-rule:nonzero;"/>
                    </g>
                    <g transform="matrix(39,0,0,39,196.894,851.827)">
                        <path d="M0.243,0.006C0.199,0.006 0.157,-0 0.117,-0.012C0.078,-0.024 0.046,-0.039 0.024,-0.056L0.064,-0.132C0.087,-0.116 0.115,-0.103 0.148,-0.093C0.182,-0.082 0.215,-0.077 0.25,-0.077C0.294,-0.077 0.327,-0.083 0.347,-0.096C0.366,-0.109 0.376,-0.127 0.376,-0.149C0.376,-0.166 0.37,-0.179 0.358,-0.188C0.346,-0.197 0.33,-0.204 0.31,-0.209C0.29,-0.214 0.269,-0.218 0.245,-0.222C0.221,-0.225 0.197,-0.23 0.173,-0.235C0.149,-0.241 0.127,-0.249 0.107,-0.26C0.087,-0.27 0.071,-0.284 0.059,-0.303C0.047,-0.321 0.041,-0.346 0.041,-0.376C0.041,-0.408 0.05,-0.436 0.068,-0.46C0.086,-0.484 0.112,-0.502 0.144,-0.515C0.177,-0.529 0.217,-0.535 0.262,-0.535C0.297,-0.535 0.332,-0.531 0.368,-0.522C0.403,-0.514 0.432,-0.502 0.455,-0.487L0.414,-0.411C0.39,-0.427 0.365,-0.438 0.339,-0.444C0.313,-0.45 0.287,-0.453 0.261,-0.453C0.219,-0.453 0.188,-0.446 0.167,-0.433C0.147,-0.419 0.136,-0.402 0.136,-0.38C0.136,-0.362 0.142,-0.348 0.155,-0.339C0.167,-0.329 0.183,-0.322 0.202,-0.316C0.222,-0.311 0.244,-0.306 0.268,-0.303C0.292,-0.299 0.316,-0.294 0.34,-0.289C0.364,-0.283 0.386,-0.275 0.405,-0.265C0.425,-0.255 0.441,-0.241 0.453,-0.223C0.466,-0.205 0.472,-0.181 0.472,-0.151C0.472,-0.119 0.462,-0.091 0.444,-0.068C0.425,-0.044 0.399,-0.026 0.365,-0.014C0.331,-0.001 0.291,0.006 0.243,0.006Z" style="fill:rgb(255,117,0);fill-rule:nonzero;"/>
                    </g>
                    <g transform="matrix(39,0,0,39,216.433,851.827)">
                    </g>
                </g>
            </g>
        </g>
    </g>
</svg>
